<?xml version="1.0" encoding="UTF-8"?>
<!DOCTYPE svg PUBLIC "-//W3C//DTD SVG 1.1//EN" "http://www.w3.org/Graphics/SVG/1.1/DTD/svg11.dtd">
<svg version="1.2" width="377.55mm" height="440.01mm" viewBox="0 0 37755 44001" preserveAspectRatio="xMidYMid" fill-rule="evenodd" stroke-width="28.222" stroke-linejoin="round" xmlns="http://www.w3.org/2000/svg" xmlns:ooo="http://xml.openoffice.org/svg/export" xmlns:xlink="http://www.w3.org/1999/xlink" xmlns:presentation="http://sun.com/xmlns/staroffice/presentation" xmlns:smil="http://www.w3.org/2001/SMIL20/" xmlns:anim="urn:oasis:names:tc:opendocument:xmlns:animation:1.0" xml:space="preserve">
 <defs class="ClipPathGroup">
  <clipPath id="presentation_clip_path" clipPathUnits="userSpaceOnUse">
   <rect x="0" y="0" width="37755" height="44001"/>
  </clipPath>
  <clipPath id="presentation_clip_path_shrink" clipPathUnits="userSpaceOnUse">
   <rect x="37" y="44" width="37680" height="43913"/>
  </clipPath>
 </defs>
 <defs class="TextShapeIndex">
  <g ooo:slide="id1" ooo:id-list="id3 id4 id5 id6 id7 id8 id9 id10 id11 id12 id13 id14 id15 id16 id17 id18 id19 id20 id21 id22 id23 id24 id25 id26 id27 id28 id29 id30 id31 id32 id33 id34 id35 id36 id37 id38 id39 id40 id41 id42 id43 id44 id45 id46 id47 id48 id49 id50 id51 id52 id53 id54 id55 id56 id57 id58 id59 id60 id61 id62 id63 id64 id65 id66 id67 id68 id69 id70 id71 id72 id73 id74 id75 id76 id77 id78 id79 id80 id81 id82 id83 id84 id85 id86 id87 id88 id89 id90 id91 id92 id93 id94 id95 id96 id97 id98 id99 id100 id101 id102 id103 id104 id105 id106 id107 id108 id109 id110 id111 id112 id113 id114 id115 id116 id117 id118 id119 id120 id121 id122 id123 id124 id125 id126 id127 id128 id129 id130 id131 id132 id133 id134 id135 id136 id137 id138 id139 id140 id141 id142 id143 id144 id145 id146 id147 id148 id149 id150 id151 id152 id153 id154 id155 id156 id157 id158 id159 id160 id161 id162 id163 id164 id165 id166 id167 id168"/>
 </defs>
 <defs class="EmbeddedBulletChars">
  <g id="bullet-char-template-57356" transform="scale(0.00048828125,-0.00048828125)">
   <path d="M 580,1141 L 1163,571 580,0 -4,571 580,1141 Z"/>
  </g>
  <g id="bullet-char-template-57354" transform="scale(0.00048828125,-0.00048828125)">
   <path d="M 8,1128 L 1137,1128 1137,0 8,0 8,1128 Z"/>
  </g>
  <g id="bullet-char-template-10146" transform="scale(0.00048828125,-0.00048828125)">
   <path d="M 174,0 L 602,739 174,1481 1456,739 174,0 Z M 1358,739 L 309,1346 659,739 1358,739 Z"/>
  </g>
  <g id="bullet-char-template-10132" transform="scale(0.00048828125,-0.00048828125)">
   <path d="M 2015,739 L 1276,0 717,0 1260,543 174,543 174,936 1260,936 717,1481 1274,1481 2015,739 Z"/>
  </g>
  <g id="bullet-char-template-10007" transform="scale(0.00048828125,-0.00048828125)">
   <path d="M 0,-2 C -7,14 -16,27 -25,37 L 356,567 C 262,823 215,952 215,954 215,979 228,992 255,992 264,992 276,990 289,987 310,991 331,999 354,1012 L 381,999 492,748 772,1049 836,1024 860,1049 C 881,1039 901,1025 922,1006 886,937 835,863 770,784 769,783 710,716 594,584 L 774,223 C 774,196 753,168 711,139 L 727,119 C 717,90 699,76 672,76 641,76 570,178 457,381 L 164,-76 C 142,-110 111,-127 72,-127 30,-127 9,-110 8,-76 1,-67 -2,-52 -2,-32 -2,-23 -1,-13 0,-2 Z"/>
  </g>
  <g id="bullet-char-template-10004" transform="scale(0.00048828125,-0.00048828125)">
   <path d="M 285,-33 C 182,-33 111,30 74,156 52,228 41,333 41,471 41,549 55,616 82,672 116,743 169,778 240,778 293,778 328,747 346,684 L 369,508 C 377,444 397,411 428,410 L 1163,1116 C 1174,1127 1196,1133 1229,1133 1271,1133 1292,1118 1292,1087 L 1292,965 C 1292,929 1282,901 1262,881 L 442,47 C 390,-6 338,-33 285,-33 Z"/>
  </g>
  <g id="bullet-char-template-9679" transform="scale(0.00048828125,-0.00048828125)">
   <path d="M 813,0 C 632,0 489,54 383,161 276,268 223,411 223,592 223,773 276,916 383,1023 489,1130 632,1184 813,1184 992,1184 1136,1130 1245,1023 1353,916 1407,772 1407,592 1407,412 1353,268 1245,161 1136,54 992,0 813,0 Z"/>
  </g>
  <g id="bullet-char-template-8226" transform="scale(0.00048828125,-0.00048828125)">
   <path d="M 346,457 C 273,457 209,483 155,535 101,586 74,649 74,723 74,796 101,859 155,911 209,963 273,989 346,989 419,989 480,963 531,910 582,859 608,796 608,723 608,648 583,586 532,535 482,483 420,457 346,457 Z"/>
  </g>
  <g id="bullet-char-template-8211" transform="scale(0.00048828125,-0.00048828125)">
   <path d="M -4,459 L 1135,459 1135,606 -4,606 -4,459 Z"/>
  </g>
  <g id="bullet-char-template-61548" transform="scale(0.00048828125,-0.00048828125)">
   <path d="M 173,740 C 173,903 231,1043 346,1159 462,1274 601,1332 765,1332 928,1332 1067,1274 1183,1159 1299,1043 1357,903 1357,740 1357,577 1299,437 1183,322 1067,206 928,148 765,148 601,148 462,206 346,322 231,437 173,577 173,740 Z"/>
  </g>
 </defs>
 <g>
  <g id="id2" class="Master_Slide">
   <g id="bg-id2" class="Background"/>
   <g id="bo-id2" class="BackgroundObjects"/>
  </g>
 </g>
 <g class="SlideGroup">
  <g>
   <g id="container-id1">
    <g id="id1" class="Slide" clip-path="url(#presentation_clip_path)">
     <g class="Page">
      <g class="com.sun.star.drawing.ClosedBezierShape">
       <g id="id3">
        <rect class="BoundingBox" stroke="none" fill="none" x="716" y="833" width="36322" height="42333"/>
        <path fill="rgb(0,0,0)" stroke="none" d="M 16335,1127 C 15064,1894 14420,2913 14231,4199 14140,4854 14395,4452 14027,5892 13877,6486 13824,6744 14226,7639 14563,8375 15029,8995 15180,9493 15185,9523 15217,9534 15240,9550 18937,11579 21335,15123 23348,17503 25888,19417 26376,21651 26595,22192 27049,22963 27543,23709 27960,24501 28620,25764 28464,25883 28734,26194 29271,26768 28860,27095 28997,27401 31545,28683 33876,30345 37036,32426 37041,33734 35530,32525 34965,33445 33303,34475 31325,32972 29729,32357 27956,31687 26254,30654 24365,30512 23891,30476 22747,30524 22380,30625 21361,30910 21848,32219 21316,32860 20858,33434 19716,37656 19583,39538 19704,39940 21222,40203 21458,41013 21617,41575 21699,41995 21243,41981 21088,41718 20511,41092 20239,40932 19413,40431 18834,40575 18754,40570 18239,40491 17721,40441 17203,40402 13629,40159 13716,40596 13004,40991 12937,41030 12857,41046 12783,41016 12792,40320 13025,39531 13702,39390 14115,39292 16559,39836 17228,39390 17143,39324 17033,39307 16931,39282 15552,38979 15746,39116 15173,39061 15118,39056 15066,39035 15020,39007 15100,38748 15666,38419 16094,38326 16839,38168 16827,38778 17647,39046 17863,39120 18109,39107 18311,38996 20511,30696 19428,33078 19363,31908 16693,32782 16632,32204 14752,32657 13769,33515 12778,34725 12570,34811 11074,36952 9239,38596 8286,40438 8160,40630 8739,40956 8936,41081 8927,41092 8911,41115 8902,41126 9506,41572 10928,41689 10286,42842 10230,42951 10146,43044 10103,43160 9860,43245 9888,42151 9079,42149 8760,42092 7817,41625 7654,41614 6137,41483 4280,41723 3080,41284 2494,41086 2589,40812 717,41704 1208,40934 1118,39907 2780,40151 4272,40394 4206,40374 4384,40423 4248,40014 5571,39533 5985,39776 6243,39972 6842,40496 7108,40176 8616,38550 10684,35463 10722,35376 10788,33992 11512,32084 10051,31645 7657,30308 5551,27833 5106,27187 1991,22984 2099,24296 1303,16755 1005,14423 2206,12299 2218,12083 2276,11237 3113,9826 3432,8530 4368,5183 4674,3572 6064,2514 6321,2329 7345,1360 9223,1088 10458,908 11743,1078 12885,1582 13250,1753 14255,1128 14973,920 15480,775 15930,792 16335,1127 Z"/>
       </g>
      </g>
      <g class="com.sun.star.drawing.ClosedBezierShape">
       <g id="id4">
        <rect class="BoundingBox" stroke="none" fill="none" x="13632" y="950" width="2330" height="1843"/>
        <path fill="rgb(232,162,2)" stroke="none" d="M 13844,2792 C 14384,2163 15278,1496 15960,1022 15568,829 14842,1080 14452,1187 13354,1563 13592,1616 13844,2792 Z"/>
       </g>
      </g>
      <g class="com.sun.star.drawing.ClosedBezierShape">
       <g id="id5">
        <rect class="BoundingBox" stroke="none" fill="none" x="13630" y="1163" width="2340" height="2553"/>
        <path fill="rgb(232,162,2)" stroke="none" d="M 13630,3343 C 13841,3406 13938,3639 14142,3715 14180,3677 14194,3626 14199,3574 14292,2811 15404,1686 15969,1163 15703,1321 15448,1498 15206,1692 14608,2168 14110,2752 13630,3343 Z"/>
       </g>
      </g>
      <g class="com.sun.star.drawing.ClosedBezierShape">
       <g id="id6">
        <rect class="BoundingBox" stroke="none" fill="none" x="8128" y="2191" width="5508" height="3327"/>
        <path fill="rgb(247,209,213)" stroke="none" d="M 8576,3643 C 8565,3757 8483,3843 8432,3941 8159,4436 7928,5226 8400,5462 8786,5653 9414,5297 9644,5053 10222,4468 11120,3437 11896,3778 11553,3155 12104,2395 13230,2808 13428,2896 13718,2752 13612,2518 13456,2158 12901,2148 12491,2240 10888,2450 8824,2389 8576,3643 Z"/>
       </g>
      </g>
      <g class="com.sun.star.drawing.ClosedBezierShape">
       <g id="id7">
        <rect class="BoundingBox" stroke="none" fill="none" x="12052" y="2782" width="1189" height="1213"/>
        <path fill="rgb(255,255,0)" stroke="none" d="M 12100,3551 C 12196,3739 12523,4078 12890,3973 13389,3820 13408,2615 12593,2801 12241,2897 11933,3235 12100,3551 Z"/>
       </g>
      </g>
      <g class="com.sun.star.drawing.ClosedBezierShape">
       <g id="id8">
        <rect class="BoundingBox" stroke="none" fill="none" x="12415" y="3670" width="1663" height="2756"/>
        <path fill="rgb(183,179,202)" stroke="none" d="M 12415,4181 C 12639,4572 12865,6103 13330,6169 13403,6257 13561,6500 13676,6401 13769,6322 13765,6189 13824,6090 14239,5420 14119,3543 13631,3678 13483,3721 13399,3862 13282,3950 13047,4151 12721,4261 12415,4181 Z"/>
       </g>
      </g>
      <g class="com.sun.star.drawing.ClosedBezierShape">
       <g id="id9">
        <rect class="BoundingBox" stroke="none" fill="none" x="6804" y="4413" width="626" height="474"/>
        <path fill="rgb(129,55,9)" stroke="none" d="M 7428,4776 C 7180,4827 6982,4778 6877,4414 6834,4441 6792,4483 6807,4540 6843,4753 7122,5048 7428,4776 Z"/>
       </g>
      </g>
      <g class="com.sun.star.drawing.ClosedBezierShape">
       <g id="id10">
        <rect class="BoundingBox" stroke="none" fill="none" x="11505" y="5298" width="811" height="338"/>
        <path fill="rgb(129,55,9)" stroke="none" d="M 12315,5332 C 12096,5554 11718,5504 11506,5298 11580,5581 12022,5871 12315,5332 Z"/>
       </g>
      </g>
      <g class="com.sun.star.drawing.ClosedBezierShape">
       <g id="id11">
        <rect class="BoundingBox" stroke="none" fill="none" x="9234" y="5549" width="692" height="425"/>
        <path fill="rgb(129,55,9)" stroke="none" d="M 9234,5824 C 9642,5978 9673,6043 9851,5866 9933,5782 9939,5655 9904,5549 9855,5838 9527,5820 9234,5824 Z"/>
       </g>
      </g>
      <g class="com.sun.star.drawing.ClosedBezierShape">
       <g id="id12">
        <rect class="BoundingBox" stroke="none" fill="none" x="10473" y="5536" width="717" height="294"/>
        <path fill="rgb(129,55,9)" stroke="none" d="M 11189,5629 C 11038,5635 10919,5746 10773,5773 10653,5724 10573,5616 10475,5536 10447,5859 11119,5948 11189,5629 Z"/>
       </g>
      </g>
      <g class="com.sun.star.drawing.ClosedBezierShape">
       <g id="id13">
        <rect class="BoundingBox" stroke="none" fill="none" x="6524" y="5768" width="879" height="265"/>
        <path fill="rgb(129,55,9)" stroke="none" d="M 7402,5846 C 7111,5920 6700,6008 6524,5769 6609,6180 7028,6031 7402,5846 Z"/>
       </g>
      </g>
      <g class="com.sun.star.drawing.ClosedBezierShape">
       <g id="id14">
        <rect class="BoundingBox" stroke="none" fill="none" x="12197" y="5846" width="506" height="232"/>
        <path fill="rgb(129,55,9)" stroke="none" d="M 12702,5958 C 12527,5979 12342,5951 12197,5846 12290,6074 12284,6171 12702,5958 Z"/>
       </g>
      </g>
      <g class="com.sun.star.drawing.ClosedBezierShape">
       <g id="id15">
        <rect class="BoundingBox" stroke="none" fill="none" x="4917" y="6034" width="963" height="426"/>
        <path fill="rgb(129,55,9)" stroke="none" d="M 5878,6275 C 5663,6491 5130,6248 4917,6034 4970,6618 5731,6498 5878,6275 Z"/>
       </g>
      </g>
      <g class="com.sun.star.drawing.ClosedBezierShape">
       <g id="id16">
        <rect class="BoundingBox" stroke="none" fill="none" x="8231" y="6136" width="696" height="432"/>
        <path fill="rgb(129,55,9)" stroke="none" d="M 8926,6212 C 8644,6547 8444,6314 8231,6136 8260,6516 8847,6840 8926,6212 Z"/>
       </g>
      </g>
      <g class="com.sun.star.drawing.ClosedBezierShape">
       <g id="id17">
        <rect class="BoundingBox" stroke="none" fill="none" x="10120" y="6184" width="620" height="364"/>
        <path fill="rgb(129,55,9)" stroke="none" d="M 10739,6200 C 10521,6434 10314,6409 10120,6184 10170,6302 10217,6433 10325,6513 10487,6639 10644,6380 10739,6200 Z"/>
       </g>
      </g>
      <g class="com.sun.star.drawing.ClosedBezierShape">
       <g id="id18">
        <rect class="BoundingBox" stroke="none" fill="none" x="6212" y="6837" width="1080" height="507"/>
        <path fill="rgb(129,55,9)" stroke="none" d="M 6783,7341 C 7133,7292 7163,7195 7291,7065 6873,7300 6590,7152 6212,6837 6316,7138 6685,7364 6783,7341 Z"/>
       </g>
      </g>
      <g class="com.sun.star.drawing.ClosedBezierShape">
       <g id="id19">
        <rect class="BoundingBox" stroke="none" fill="none" x="10579" y="7014" width="1069" height="456"/>
        <path fill="rgb(129,55,9)" stroke="none" d="M 11647,7253 C 11285,7361 10752,7355 10579,7014 10734,7594 11118,7555 11647,7253 Z"/>
       </g>
      </g>
      <g class="com.sun.star.drawing.ClosedBezierShape">
       <g id="id20">
        <rect class="BoundingBox" stroke="none" fill="none" x="8977" y="7112" width="915" height="626"/>
        <path fill="rgb(129,55,9)" stroke="none" d="M 9890,7221 C 9510,7776 9243,7829 9027,7112 8754,7719 9697,8095 9890,7221 Z"/>
       </g>
      </g>
      <g class="com.sun.star.drawing.ClosedBezierShape">
       <g id="id21">
        <rect class="BoundingBox" stroke="none" fill="none" x="3986" y="7676" width="1548" height="722"/>
        <path fill="rgb(129,55,9)" stroke="none" d="M 4044,7680 C 3842,8050 4189,8619 4720,8306 5031,8150 5437,7971 5532,7676 5226,7811 4930,7973 4609,8072 4247,8177 4260,7964 4044,7680 Z"/>
       </g>
      </g>
      <g class="com.sun.star.drawing.ClosedBezierShape">
       <g id="id22">
        <rect class="BoundingBox" stroke="none" fill="none" x="8976" y="8240" width="701" height="245"/>
        <path fill="rgb(129,55,9)" stroke="none" d="M 9222,8484 C 9375,8418 9525,8345 9676,8274 9442,8286 9207,8273 8976,8240 9062,8317 9153,8390 9222,8484 Z"/>
       </g>
      </g>
      <g class="com.sun.star.drawing.ClosedBezierShape">
       <g id="id23">
        <rect class="BoundingBox" stroke="none" fill="none" x="5812" y="8293" width="1399" height="492"/>
        <path fill="rgb(129,55,9)" stroke="none" d="M 5812,8371 C 6205,8999 6944,8860 7210,8293 7149,8350 7081,8404 7001,8433 6680,8558 6051,8588 5812,8371 Z"/>
       </g>
      </g>
      <g class="com.sun.star.drawing.ClosedBezierShape">
       <g id="id24">
        <rect class="BoundingBox" stroke="none" fill="none" x="7470" y="8422" width="791" height="317"/>
        <path fill="rgb(129,55,9)" stroke="none" d="M 7966,8738 C 8064,8642 8161,8545 8260,8451 8010,8585 7725,8480 7471,8422 7635,8528 7801,8632 7966,8738 Z"/>
       </g>
      </g>
      <g class="com.sun.star.drawing.ClosedBezierShape">
       <g id="id25">
        <rect class="BoundingBox" stroke="none" fill="none" x="3720" y="8617" width="1504" height="767"/>
        <path fill="rgb(129,55,9)" stroke="none" d="M 4123,9323 C 4476,9546 4927,9089 5222,8794 4828,9034 3895,9234 3781,8915 3747,8813 3799,8710 3836,8617 3749,8625 3702,8711 3726,8791 3773,9013 3926,9211 4123,9323 Z"/>
       </g>
      </g>
      <g class="com.sun.star.drawing.ClosedBezierShape">
       <g id="id26">
        <rect class="BoundingBox" stroke="none" fill="none" x="1691" y="8749" width="20055" height="12397"/>
        <path fill="rgb(129,55,9)" stroke="none" d="M 10576,9455 C 10517,9797 9862,9528 9252,9350 9480,9469 9733,9578 9892,9789 9674,10011 8152,10309 7693,10011 7357,9801 7717,9019 8703,9155 8458,9080 8216,8987 7961,8950 7994,8936 8059,8908 8092,8895 7905,8924 7719,8961 7532,8992 7771,9180 7612,9451 7398,9652 6890,10109 6178,10042 6041,9678 5975,10590 5063,10652 4527,10020 4500,10034 4474,10048 4447,10063 5174,10682 5532,11248 5304,11354 5072,11381 3953,11153 3121,11051 2847,11352 2618,11721 2578,12134 2599,12332 2901,12296 2755,12601 1261,15509 1033,17662 4117,19272 4179,19307 4205,19379 4250,19431 5129,20574 7712,22074 7040,20391 6706,20062 6362,19408 6279,18972 6885,20596 9186,21384 9260,20935 7824,19963 7907,19948 7569,19423 8701,20733 10827,21537 10285,20536 10118,20560 9086,18985 9028,18897 10240,20401 10531,20652 11402,20653 11839,20652 12273,20565 12687,20430 11834,20334 10835,18731 10862,18459 10885,18485 11539,19912 13743,20482 14529,20673 15398,20673 15104,19916 15273,19559 13815,17981 13788,17495 14100,17870 15064,18977 15538,19174 15721,19246 16023,19170 15937,18751 15562,18459 15358,18018 15165,17596 16065,18707 16359,18876 16796,19072 17513,19385 18327,19400 18636,19149 18382,18738 17042,17456 16773,16859 17445,17371 19790,20389 20891,19420 21436,18709 19477,16707 18831,16085 19493,16277 20843,17677 21303,18436 21331,18492 21411,18500 21460,18467 21814,18226 21801,16227 21621,15921 19830,12518 15660,9833 13809,9260 13355,9550 12931,9571 12847,9008 12760,8989 12672,8971 12585,8954 12401,9531 11586,9488 11158,8768 11057,8760 10957,8755 10856,8749 10876,9007 10788,9294 10576,9455 Z"/>
       </g>
      </g>
      <g class="com.sun.star.drawing.ClosedBezierShape">
       <g id="id27">
        <rect class="BoundingBox" stroke="none" fill="none" x="6021" y="9364" width="76" height="130"/>
        <path fill="rgb(129,55,9)" stroke="none" d="M 6038,9493 C 6056,9449 6076,9406 6096,9364 6077,9370 6040,9383 6021,9390 6026,9424 6032,9458 6038,9493 Z"/>
       </g>
      </g>
      <g class="com.sun.star.drawing.ClosedBezierShape">
       <g id="id28">
        <rect class="BoundingBox" stroke="none" fill="none" x="1598" y="14616" width="46" height="49"/>
        <path fill="rgb(0,0,0)" stroke="none" d="M 1628,14664 C 1651,14635 1646,14619 1612,14616 1589,14645 1594,14661 1628,14664 Z"/>
       </g>
      </g>
      <g class="com.sun.star.drawing.ClosedBezierShape">
       <g id="id29">
        <rect class="BoundingBox" stroke="none" fill="none" x="21640" y="17277" width="2639" height="3831"/>
        <path fill="rgb(129,55,9)" stroke="none" d="M 21640,18701 C 22705,20603 26743,23516 22075,17521 22017,17443 21942,17373 21914,17277 21913,17720 21935,18467 21640,18701 Z"/>
       </g>
      </g>
      <g class="com.sun.star.drawing.ClosedBezierShape">
       <g id="id30">
        <rect class="BoundingBox" stroke="none" fill="none" x="1700" y="17794" width="24661" height="16965"/>
        <path fill="rgb(120,75,4)" stroke="none" d="M 11163,31793 C 11328,31823 10874,34393 11151,34610 12112,35336 13825,33180 13974,32600 14338,32533 14679,32380 15038,32294 15448,32214 18120,32025 19867,31505 22491,30728 22389,29188 26359,30501 24378,29328 22763,28843 22631,28898 20217,30006 18821,26941 18516,26857 15225,25722 10197,23772 7520,21558 5889,21760 2086,19229 1911,17794 1746,18207 1691,18655 1701,19098 1805,23111 6630,30075 11163,31793 Z"/>
       </g>
      </g>
      <g class="com.sun.star.drawing.ClosedBezierShape">
       <g id="id31">
        <rect class="BoundingBox" stroke="none" fill="none" x="16361" y="19287" width="10407" height="7528"/>
        <path fill="rgb(129,55,9)" stroke="none" d="M 21813,22455 C 22732,23251 24613,24912 24553,26114 24533,26557 24135,26742 23726,26623 24591,27230 25234,26279 24538,25291 24767,25471 24949,25708 25204,25855 25726,26161 26169,26227 26767,26675 25926,25791 25311,24731 24608,23742 23566,22266 22451,21368 20978,19673 21136,20158 22001,21135 22118,21711 22179,22029 21920,22102 21821,22028 21281,21676 19954,19900 18949,19403 18094,19578 17197,19539 16361,19287 17755,20324 21520,23300 21813,22455 Z"/>
       </g>
      </g>
      <g class="com.sun.star.drawing.ClosedBezierShape">
       <g id="id32">
        <rect class="BoundingBox" stroke="none" fill="none" x="25063" y="19927" width="1256" height="3200"/>
        <path fill="rgb(129,55,9)" stroke="none" d="M 25537,22095 C 25477,22443 25247,22329 25063,22253 25197,22538 25607,23052 25914,23122 26097,23161 26420,22912 26286,22245 26125,21511 25517,20525 25066,19928 25247,20450 25614,21546 25537,22095 Z"/>
       </g>
      </g>
      <g class="com.sun.star.drawing.ClosedBezierShape">
       <g id="id33">
        <rect class="BoundingBox" stroke="none" fill="none" x="10511" y="20230" width="12288" height="5025"/>
        <path fill="rgb(129,55,9)" stroke="none" d="M 12831,20524 C 12367,21043 11434,20799 10696,20759 10634,20841 10573,20924 10511,21007 11263,21278 16401,23875 16817,23923 16564,23631 14206,22317 14027,22053 14589,22134 17235,23950 17765,24010 17584,23694 15246,22243 15077,21951 15689,22051 21469,26292 22687,25013 22955,24732 22684,24291 22429,23998 19080,24203 16421,20959 15281,20230 15199,20670 15539,20838 12831,20524 Z"/>
       </g>
      </g>
      <g class="com.sun.star.drawing.ClosedBezierShape">
       <g id="id34">
        <rect class="BoundingBox" stroke="none" fill="none" x="23262" y="20357" width="1660" height="1353"/>
        <path fill="rgb(129,55,9)" stroke="none" d="M 23263,21365 C 24324,22003 24620,21589 24775,21420 25069,21091 24866,20728 24629,20357 24997,21259 24241,21812 23263,21365 Z"/>
       </g>
      </g>
      <g class="com.sun.star.drawing.ClosedBezierShape">
       <g id="id35">
        <rect class="BoundingBox" stroke="none" fill="none" x="8534" y="21436" width="11131" height="4920"/>
        <path fill="rgb(129,55,9)" stroke="none" d="M 9562,22344 C 10159,23036 19438,26449 19664,26353 18011,25891 8561,21444 8535,21436 8607,21598 9047,21936 9562,22344 Z"/>
       </g>
      </g>
      <g class="com.sun.star.drawing.ClosedBezierShape">
       <g id="id36">
        <rect class="BoundingBox" stroke="none" fill="none" x="9768" y="21494" width="10610" height="4400"/>
        <path fill="rgb(129,55,9)" stroke="none" d="M 20377,25893 C 20162,25723 19599,25477 19200,25348 16195,24398 11693,21602 9768,21494 11690,22426 18304,25690 20377,25893 Z"/>
       </g>
      </g>
      <g class="com.sun.star.drawing.ClosedBezierShape">
       <g id="id37">
        <rect class="BoundingBox" stroke="none" fill="none" x="24685" y="22864" width="2718" height="1740"/>
        <path fill="rgb(129,55,9)" stroke="none" d="M 24685,23140 C 25038,23898 26516,24706 27369,24592 27543,24079 26985,23287 26653,22864 26835,23634 25914,23980 24685,23140 Z"/>
       </g>
      </g>
      <g class="com.sun.star.drawing.ClosedBezierShape">
       <g id="id38">
        <rect class="BoundingBox" stroke="none" fill="none" x="21502" y="23994" width="2035" height="1929"/>
        <path fill="rgb(129,55,9)" stroke="none" d="M 23057,25382 C 22696,25716 21988,25706 21502,25616 24472,26718 23428,24520 23027,23995 23149,24271 23496,24986 23057,25382 Z"/>
       </g>
      </g>
      <g class="com.sun.star.drawing.ClosedBezierShape">
       <g id="id39">
        <rect class="BoundingBox" stroke="none" fill="none" x="25596" y="24184" width="2387" height="951"/>
        <path fill="rgb(129,55,9)" stroke="none" d="M 27902,25129 C 28125,24811 27836,24522 27573,24462 27580,24608 27641,24828 26881,24656 26441,24536 26008,24383 25597,24184 26431,25422 27268,25070 27902,25129 Z"/>
       </g>
      </g>
      <g class="com.sun.star.drawing.ClosedBezierShape">
       <g id="id40">
        <rect class="BoundingBox" stroke="none" fill="none" x="25625" y="24588" width="2597" height="1300"/>
        <path fill="rgb(129,55,9)" stroke="none" d="M 28221,25860 C 28206,25683 28195,25507 28197,25330 28132,25599 28001,25608 27334,25440 26718,25269 26116,25004 25625,24588 26256,25298 27291,26036 28221,25860 Z"/>
       </g>
      </g>
      <g class="com.sun.star.drawing.ClosedBezierShape">
       <g id="id41">
        <rect class="BoundingBox" stroke="none" fill="none" x="25985" y="25207" width="2658" height="1816"/>
        <path fill="rgb(129,55,9)" stroke="none" d="M 28429,26980 C 28571,26866 28601,26668 28642,26501 27690,26415 26782,25805 25985,25208 26464,25859 27687,27282 28429,26980 Z"/>
       </g>
      </g>
      <g class="com.sun.star.drawing.ClosedBezierShape">
       <g id="id42">
        <rect class="BoundingBox" stroke="none" fill="none" x="24354" y="25792" width="2978" height="2268"/>
        <path fill="rgb(129,55,9)" stroke="none" d="M 26592,27731 C 25995,27731 24911,27337 24354,27123 25903,28032 25548,28110 27186,28039 27897,27117 25813,26320 24839,25792 25618,26345 27546,27680 26592,27731 Z"/>
       </g>
      </g>
      <g class="com.sun.star.drawing.ClosedBezierShape">
       <g id="id43">
        <rect class="BoundingBox" stroke="none" fill="none" x="20564" y="26238" width="3425" height="1427"/>
        <path fill="rgb(129,55,9)" stroke="none" d="M 23988,27454 C 23309,27349 20994,26923 20920,26238 20839,26366 20707,26453 20564,26498 21301,27000 23766,28130 23988,27454 Z"/>
       </g>
      </g>
      <g class="com.sun.star.drawing.ClosedBezierShape">
       <g id="id44">
        <rect class="BoundingBox" stroke="none" fill="none" x="26936" y="27502" width="1829" height="1399"/>
        <path fill="rgb(129,55,9)" stroke="none" d="M 26936,28281 C 28465,29286 29163,28936 28530,28167 28323,27924 27834,27485 27520,27503 27581,27989 27337,28244 26936,28281 Z"/>
       </g>
      </g>
      <g class="com.sun.star.drawing.ClosedBezierShape">
       <g id="id45">
        <rect class="BoundingBox" stroke="none" fill="none" x="24585" y="27735" width="8917" height="4859"/>
        <path fill="rgb(129,55,9)" stroke="none" d="M 32280,32274 C 32659,32458 33070,32635 33501,32583 32830,32041 31592,31394 30810,30963 26906,28856 26287,28033 24586,27735 26692,29295 29789,31060 32280,32274 Z"/>
       </g>
      </g>
      <g class="com.sun.star.drawing.ClosedBezierShape">
       <g id="id46">
        <rect class="BoundingBox" stroke="none" fill="none" x="28987" y="28387" width="7454" height="4454"/>
        <path fill="rgb(129,55,9)" stroke="none" d="M 30167,29356 C 32419,30679 34334,31956 36440,32840 33744,31162 34541,31924 30070,29017 29718,28793 29370,28556 28987,28387 29187,28849 29912,29200 30167,29356 Z"/>
       </g>
      </g>
      <g class="com.sun.star.drawing.ClosedBezierShape">
       <g id="id47">
        <rect class="BoundingBox" stroke="none" fill="none" x="30371" y="28627" width="6549" height="3973"/>
        <path fill="rgb(129,55,9)" stroke="none" d="M 30394,28762 C 33073,30047 36891,32579 36918,32599 36894,32527 36895,32438 36838,32384 35918,31763 30647,28412 30375,28638 30361,28680 30384,28721 30394,28762 Z"/>
       </g>
      </g>
      <g class="com.sun.star.drawing.ClosedBezierShape">
       <g id="id48">
        <rect class="BoundingBox" stroke="none" fill="none" x="27376" y="28896" width="8217" height="3965"/>
        <path fill="rgb(129,55,9)" stroke="none" d="M 32387,31659 C 33732,32475 35211,32844 35592,32860 33588,32133 31124,30579 29343,29382 29288,29344 29218,29345 29156,29333 28472,29231 28122,28976 27376,28896 28993,29912 30753,30672 32387,31659 Z"/>
       </g>
      </g>
      <g class="com.sun.star.drawing.ClosedBezierShape">
       <g id="id49">
        <rect class="BoundingBox" stroke="none" fill="none" x="14191" y="32352" width="6802" height="8376"/>
        <path fill="rgb(255,255,215)" stroke="none" d="M 19439,36105 C 19223,37052 18983,37995 18664,38913 18612,39050 18777,39323 18365,39459 17120,39867 15538,39774 14191,39629 14375,39773 14559,39918 14744,40061 19839,40185 18362,39960 20389,40588 20568,40639 20744,40713 20932,40726 20792,40512 20595,40342 20380,40208 19866,39884 19290,39801 19204,39657 19251,39512 19774,35563 20992,32682 20823,32562 20489,32165 20236,32457 20134,32550 19965,33771 19439,36105 Z"/>
       </g>
      </g>
      <g class="com.sun.star.drawing.ClosedBezierShape">
       <g id="id50">
        <rect class="BoundingBox" stroke="none" fill="none" x="2367" y="34863" width="9805" height="6969"/>
        <path fill="rgb(255,255,215)" stroke="none" d="M 11002,35116 C 10295,36365 8237,38998 7066,40833 6650,41349 2790,40427 2367,40330 2461,40473 2556,40616 2652,40758 7697,41854 6943,41281 7386,41233 7696,41185 7753,41358 8404,41546 8675,41623 8949,41699 9200,41830 9242,41788 9348,41754 9190,41603 8959,41396 8421,41163 8135,41048 8112,41063 8088,41078 8064,41092 7943,41085 8017,40618 8032,40492 7978,40543 7922,40593 7858,40632 7932,40352 9323,38586 9391,38465 10187,37009 10978,36398 12171,34863 12018,35015 11824,35133 11608,35164 11405,35200 11201,35154 11002,35116 Z"/>
       </g>
      </g>
      <g class="com.sun.star.drawing.ClosedBezierShape">
       <g id="id51">
        <rect class="BoundingBox" stroke="none" fill="none" x="4623" y="39983" width="2035" height="729"/>
        <path fill="rgb(255,255,215)" stroke="none" d="M 5038,40042 C 4862,40097 4683,40206 4623,40391 5295,40533 5983,40576 6657,40711 6015,40188 5689,39839 5038,40042 Z"/>
       </g>
      </g>
      <g class="com.sun.star.drawing.ClosedBezierShape">
       <g id="id52">
        <rect class="BoundingBox" stroke="none" fill="none" x="12188" y="2906" width="919" height="949"/>
        <path fill="rgb(0,0,0)" stroke="none" d="M 13106,3402 C 13110,4235 11981,3747 12222,3279 12307,3111 12471,2994 12646,2933 12971,2826 13092,3065 13106,3402 Z M 12408,3294 C 12391,3362 12384,3442 12410,3509 12478,3539 12554,3499 12624,3487 12605,3408 12609,3259 12408,3294 Z"/>
       </g>
      </g>
      <g class="com.sun.star.drawing.ClosedBezierShape">
       <g id="id53">
        <rect class="BoundingBox" stroke="none" fill="none" x="10904" y="9075" width="1731" height="958"/>
        <path fill="rgb(0,0,0)" stroke="none" d="M 11141,9104 C 11581,9398 12260,9679 12634,9298 12179,10296 11289,10197 10962,9475 10792,9079 11049,9030 11141,9104 Z"/>
       </g>
      </g>
      <g class="com.sun.star.drawing.ClosedBezierShape">
       <g id="id54">
        <rect class="BoundingBox" stroke="none" fill="none" x="12759" y="9403" width="1226" height="655"/>
        <path fill="rgb(0,0,0)" stroke="none" d="M 13968,9403 C 14054,9824 13776,10047 13434,10057 13161,10023 12779,9683 12759,9430 13152,9662 13567,9620 13968,9403 Z"/>
       </g>
      </g>
      <g class="com.sun.star.drawing.ClosedBezierShape">
       <g id="id55">
        <rect class="BoundingBox" stroke="none" fill="none" x="14208" y="9552" width="654" height="398"/>
        <path fill="rgb(0,0,0)" stroke="none" d="M 14860,9803 C 14700,9877 14532,9958 14352,9948 13976,9933 14403,9170 14860,9803 Z"/>
       </g>
      </g>
      <g class="com.sun.star.drawing.ClosedBezierShape">
       <g id="id56">
        <rect class="BoundingBox" stroke="none" fill="none" x="11926" y="9758" width="784" height="878"/>
        <path fill="rgb(0,0,0)" stroke="none" d="M 12659,9758 C 12767,10042 12704,10614 12419,10634 12047,10649 11799,10334 11995,10186 12240,10003 12654,10053 12659,9758 Z"/>
       </g>
      </g>
      <g class="com.sun.star.drawing.ClosedBezierShape">
       <g id="id57">
        <rect class="BoundingBox" stroke="none" fill="none" x="10361" y="9802" width="1240" height="1276"/>
        <path fill="rgb(0,0,0)" stroke="none" d="M 10700,9836 C 10980,9903 11686,10016 11590,10515 11516,10931 11108,11173 10949,11040 10836,10954 10474,10611 10426,10477 10372,10326 10348,10162 10367,10002 10409,9710 10584,9819 10700,9836 Z"/>
       </g>
      </g>
      <g class="com.sun.star.drawing.ClosedBezierShape">
       <g id="id58">
        <rect class="BoundingBox" stroke="none" fill="none" x="8570" y="10030" width="1542" height="610"/>
        <path fill="rgb(0,0,0)" stroke="none" d="M 10097,10102 C 10134,10222 10092,10550 10018,10579 9792,10681 9201,10633 8902,10574 8732,10531 8665,10530 8578,10359 8464,10128 9581,10081 9832,10072 9902,10072 10057,9959 10097,10102 Z"/>
       </g>
      </g>
      <g class="com.sun.star.drawing.ClosedBezierShape">
       <g id="id59">
        <rect class="BoundingBox" stroke="none" fill="none" x="13754" y="10109" width="1082" height="995"/>
        <path fill="rgb(0,0,0)" stroke="none" d="M 14653,10186 C 14964,10558 14837,11206 14568,11088 14305,10999 14085,10797 13803,10759 13533,10256 14468,9960 14653,10186 Z"/>
       </g>
      </g>
      <g class="com.sun.star.drawing.ClosedBezierShape">
       <g id="id60">
        <rect class="BoundingBox" stroke="none" fill="none" x="12900" y="10117" width="701" height="1032"/>
        <path fill="rgb(0,0,0)" stroke="none" d="M 12971,10117 C 13131,10126 13307,10196 13376,10351 13411,10442 14067,11447 12953,11059 12911,10849 12851,10295 12971,10117 Z"/>
       </g>
      </g>
      <g class="com.sun.star.drawing.ClosedBezierShape">
       <g id="id61">
        <rect class="BoundingBox" stroke="none" fill="none" x="6629" y="10165" width="1922" height="858"/>
        <path fill="rgb(0,0,0)" stroke="none" d="M 8550,10733 C 8458,10817 8323,10780 8210,10781 8041,11321 6825,10840 6650,10425 6410,9859 8307,10334 8550,10733 Z"/>
       </g>
      </g>
      <g class="com.sun.star.drawing.ClosedBezierShape">
       <g id="id62">
        <rect class="BoundingBox" stroke="none" fill="none" x="15145" y="10321" width="597" height="451"/>
        <path fill="rgb(0,0,0)" stroke="none" d="M 15635,10683 C 15487,10765 15311,10769 15145,10771 15317,9933 15999,10486 15635,10683 Z"/>
       </g>
      </g>
      <g class="com.sun.star.drawing.ClosedBezierShape">
       <g id="id63">
        <rect class="BoundingBox" stroke="none" fill="none" x="11461" y="10512" width="1077" height="803"/>
        <path fill="rgb(0,0,0)" stroke="none" d="M 12096,10592 C 12265,10717 12414,10874 12536,11045 12536,11083 12485,11107 12460,11135 12070,11472 11475,11258 11461,11091 11489,11025 11590,11060 11617,10996 11717,10787 11698,10327 12096,10592 Z"/>
       </g>
      </g>
      <g class="com.sun.star.drawing.ClosedBezierShape">
       <g id="id64">
        <rect class="BoundingBox" stroke="none" fill="none" x="5500" y="10552" width="1927" height="1035"/>
        <path fill="rgb(0,0,0)" stroke="none" d="M 6912,10989 C 7221,11169 7510,11325 7403,11399 7229,11502 6780,11439 6487,11503 6442,11506 6451,11555 6446,11586 6234,11572 5846,11288 5657,11057 5279,10583 5542,10241 6912,10989 Z"/>
       </g>
      </g>
      <g class="com.sun.star.drawing.ClosedBezierShape">
       <g id="id65">
        <rect class="BoundingBox" stroke="none" fill="none" x="8711" y="10721" width="1966" height="1322"/>
        <path fill="rgb(0,0,0)" stroke="none" d="M 10136,10792 C 10538,10960 10761,11325 10645,11912 10525,12465 8147,11083 8836,10889 9183,10800 9713,10622 10136,10792 Z"/>
       </g>
      </g>
      <g class="com.sun.star.drawing.ClosedBezierShape">
       <g id="id66">
        <rect class="BoundingBox" stroke="none" fill="none" x="13707" y="11018" width="693" height="587"/>
        <path fill="rgb(0,0,0)" stroke="none" d="M 14173,11587 C 14025,11609 13872,11609 13726,11580 13539,10385 14926,11444 14173,11587 Z"/>
       </g>
      </g>
      <g class="com.sun.star.drawing.ClosedBezierShape">
       <g id="id67">
        <rect class="BoundingBox" stroke="none" fill="none" x="15138" y="11094" width="1152" height="1065"/>
        <path fill="rgb(0,0,0)" stroke="none" d="M 16288,11526 C 16308,11777 15931,11871 15848,11960 15783,12026 15719,12092 15653,12158 15168,11896 15267,11975 15200,11815 14830,10720 16244,11088 16288,11526 Z"/>
       </g>
      </g>
      <g class="com.sun.star.drawing.ClosedBezierShape">
       <g id="id68">
        <rect class="BoundingBox" stroke="none" fill="none" x="5899" y="11223" width="1912" height="1318"/>
        <path fill="rgb(0,0,0)" stroke="none" d="M 7632,11223 C 8001,11407 7805,12588 6940,12538 6664,12287 5367,11909 6145,11707 6674,11600 7418,11661 7632,11223 Z"/>
       </g>
      </g>
      <g class="com.sun.star.drawing.ClosedBezierShape">
       <g id="id69">
        <rect class="BoundingBox" stroke="none" fill="none" x="10812" y="11265" width="784" height="656"/>
        <path fill="rgb(0,0,0)" stroke="none" d="M 11074,11368 C 11172,11324 11268,11259 11379,11265 11462,11269 11560,11301 11594,11384 11571,11485 11049,12028 10935,11899 10860,11776 10910,11609 10812,11496 10888,11433 10987,11411 11074,11368 Z"/>
       </g>
      </g>
      <g class="com.sun.star.drawing.ClosedBezierShape">
       <g id="id70">
        <rect class="BoundingBox" stroke="none" fill="none" x="7953" y="11286" width="2012" height="1159"/>
        <path fill="rgb(0,0,0)" stroke="none" d="M 8557,11286 C 8865,11467 9750,12020 9964,12303 9747,12542 8351,12505 7954,11973 8535,11502 7279,11481 8557,11286 Z"/>
       </g>
      </g>
      <g class="com.sun.star.drawing.ClosedBezierShape">
       <g id="id71">
        <rect class="BoundingBox" stroke="none" fill="none" x="12241" y="11322" width="1476" height="1346"/>
        <path fill="rgb(0,0,0)" stroke="none" d="M 12989,11322 C 13221,11328 14155,12423 13465,12667 12517,12008 11485,11055 13042,11483 13018,11432 12999,11377 12989,11322 Z"/>
       </g>
      </g>
      <g class="com.sun.star.drawing.ClosedBezierShape">
       <g id="id72">
        <rect class="BoundingBox" stroke="none" fill="none" x="2395" y="11362" width="3316" height="2460"/>
        <path fill="rgb(0,0,0)" stroke="none" d="M 3784,11368 C 4325,11399 5303,11545 5633,11786 5838,11927 5583,12098 5431,12102 4790,12140 4149,12213 3506,12185 3799,12269 4416,12511 4595,12621 3900,12872 3649,12992 3385,12805 3246,13079 2747,13630 2474,13821 2261,13444 2508,13240 2872,13012 3021,12924 3160,12816 3320,12746 3186,12586 3096,12335 3215,12143 2792,12057 2774,11885 2896,11732 3239,11297 3673,11367 3784,11368 Z"/>
       </g>
      </g>
      <g class="com.sun.star.drawing.ClosedBezierShape">
       <g id="id73">
        <rect class="BoundingBox" stroke="none" fill="none" x="16692" y="11407" width="631" height="541"/>
        <path fill="rgb(0,0,0)" stroke="none" d="M 17260,11847 C 17164,11912 17045,11926 16933,11947 16126,10943 17635,11602 17260,11847 Z"/>
       </g>
      </g>
      <g class="com.sun.star.drawing.ClosedBezierShape">
       <g id="id74">
        <rect class="BoundingBox" stroke="none" fill="none" x="11037" y="11556" width="1484" height="1315"/>
        <path fill="rgb(0,0,0)" stroke="none" d="M 11835,11558 C 11968,11512 12704,12298 12476,12555 12377,12666 12271,12770 12161,12870 11814,12743 11467,12610 11108,12522 10818,12410 11498,11662 11835,11558 Z"/>
       </g>
      </g>
      <g class="com.sun.star.drawing.ClosedBezierShape">
       <g id="id75">
        <rect class="BoundingBox" stroke="none" fill="none" x="13971" y="11805" width="767" height="437"/>
        <path fill="rgb(0,0,0)" stroke="none" d="M 14658,12123 C 14515,12196 14352,12213 14196,12240 13369,11485 15118,11894 14658,12123 Z"/>
       </g>
      </g>
      <g class="com.sun.star.drawing.ClosedBezierShape">
       <g id="id76">
        <rect class="BoundingBox" stroke="none" fill="none" x="16161" y="11971" width="546" height="534"/>
        <path fill="rgb(0,0,0)" stroke="none" d="M 16577,12500 C 16440,12514 16305,12472 16173,12436 16042,11372 17053,12460 16577,12500 Z"/>
       </g>
      </g>
      <g class="com.sun.star.drawing.ClosedBezierShape">
       <g id="id77">
        <rect class="BoundingBox" stroke="none" fill="none" x="5100" y="12122" width="1494" height="912"/>
        <path fill="rgb(0,0,0)" stroke="none" d="M 6571,12609 C 6751,12888 5783,13254 5282,12861 4597,12285 6029,11665 6571,12609 Z"/>
       </g>
      </g>
      <g class="com.sun.star.drawing.ClosedBezierShape">
       <g id="id78">
        <rect class="BoundingBox" stroke="none" fill="none" x="17535" y="12196" width="513" height="401"/>
        <path fill="rgb(0,0,0)" stroke="none" d="M 17563,12245 C 17704,12036 18259,12560 17960,12588 17826,12611 17692,12572 17563,12543 17545,12446 17511,12337 17563,12245 Z"/>
       </g>
      </g>
      <g class="com.sun.star.drawing.ClosedBezierShape">
       <g id="id79">
        <rect class="BoundingBox" stroke="none" fill="none" x="10199" y="12219" width="620" height="600"/>
        <path fill="rgb(0,0,0)" stroke="none" d="M 10199,12278 C 10408,12182 10848,12202 10816,12351 10777,12646 10378,12994 10287,12717 10234,12577 10211,12427 10199,12278 Z"/>
       </g>
      </g>
      <g class="com.sun.star.drawing.ClosedBezierShape">
       <g id="id80">
        <rect class="BoundingBox" stroke="none" fill="none" x="14878" y="12254" width="843" height="727"/>
        <path fill="rgb(0,0,0)" stroke="none" d="M 15584,12946 C 15396,13002 15196,12975 15004,12956 14401,11476 16215,12769 15584,12946 Z"/>
       </g>
      </g>
      <g class="com.sun.star.drawing.ClosedBezierShape">
       <g id="id81">
        <rect class="BoundingBox" stroke="none" fill="none" x="7654" y="12269" width="960" height="1077"/>
        <path fill="rgb(0,0,0)" stroke="none" d="M 8146,12269 C 8262,12523 8442,12738 8613,12955 8451,13492 7871,13516 7663,12759 7613,12600 7774,12318 8146,12269 Z"/>
       </g>
      </g>
      <g class="com.sun.star.drawing.ClosedBezierShape">
       <g id="id82">
        <rect class="BoundingBox" stroke="none" fill="none" x="8543" y="12562" width="1609" height="745"/>
        <path fill="rgb(0,0,0)" stroke="none" d="M 8543,12589 C 9090,12553 9761,12553 9909,12588 10101,12631 10110,12888 10151,13113 10020,13177 9891,13247 9757,13305 9559,13297 8706,12702 8543,12589 Z"/>
       </g>
      </g>
      <g class="com.sun.star.drawing.ClosedBezierShape">
       <g id="id83">
        <rect class="BoundingBox" stroke="none" fill="none" x="12442" y="12556" width="1292" height="955"/>
        <path fill="rgb(0,0,0)" stroke="none" d="M 12968,12556 C 13223,12694 13478,12831 13733,12970 13572,13149 13157,13603 12943,13493 12793,13427 11881,13179 12968,12556 Z"/>
       </g>
      </g>
      <g class="com.sun.star.drawing.ClosedBezierShape">
       <g id="id84">
        <rect class="BoundingBox" stroke="none" fill="none" x="6188" y="12649" width="1705" height="1156"/>
        <path fill="rgb(0,0,0)" stroke="none" d="M 6188,13065 C 6505,12926 6822,12787 7139,12649 7389,12907 7640,13164 7891,13422 7013,14112 6342,13789 6188,13065 Z"/>
       </g>
      </g>
      <g class="com.sun.star.drawing.ClosedBezierShape">
       <g id="id85">
        <rect class="BoundingBox" stroke="none" fill="none" x="16636" y="12678" width="666" height="573"/>
        <path fill="rgb(0,0,0)" stroke="none" d="M 17271,13041 C 17168,13167 17000,13205 16851,13250 16117,12317 17516,12736 17271,13041 Z"/>
       </g>
      </g>
      <g class="com.sun.star.drawing.ClosedBezierShape">
       <g id="id86">
        <rect class="BoundingBox" stroke="none" fill="none" x="3810" y="12788" width="1700" height="1619"/>
        <path fill="rgb(0,0,0)" stroke="none" d="M 4862,12788 C 5085,13103 5322,13453 5508,13117 5404,13497 4079,14992 3825,14154 3694,13659 4439,13075 4862,12788 Z"/>
       </g>
      </g>
      <g class="com.sun.star.drawing.ClosedBezierShape">
       <g id="id87">
        <rect class="BoundingBox" stroke="none" fill="none" x="10568" y="12782" width="2224" height="1477"/>
        <path fill="rgb(0,0,0)" stroke="none" d="M 10644,12824 C 10980,12618 12458,13206 12791,13859 12549,13987 12368,14363 12136,14229 10658,13533 10413,12969 10644,12824 Z"/>
       </g>
      </g>
      <g class="com.sun.star.drawing.ClosedBezierShape">
       <g id="id88">
        <rect class="BoundingBox" stroke="none" fill="none" x="18336" y="12852" width="571" height="459"/>
        <path fill="rgb(0,0,0)" stroke="none" d="M 18880,13105 C 18788,13219 18639,13260 18507,13310 17911,12614 19088,12854 18880,13105 Z"/>
       </g>
      </g>
      <g class="com.sun.star.drawing.ClosedBezierShape">
       <g id="id89">
        <rect class="BoundingBox" stroke="none" fill="none" x="2726" y="13134" width="951" height="1661"/>
        <path fill="rgb(0,0,0)" stroke="none" d="M 3627,13254 C 3810,13578 3439,14052 3027,14666 2899,14837 2819,14845 2756,14637 2648,14125 2870,14045 2888,13995 3064,13581 3446,12844 3627,13254 Z"/>
       </g>
      </g>
      <g class="com.sun.star.drawing.ClosedBezierShape">
       <g id="id90">
        <rect class="BoundingBox" stroke="none" fill="none" x="15442" y="13133" width="878" height="617"/>
        <path fill="rgb(0,0,0)" stroke="none" d="M 16069,13655 C 15993,13693 15919,13759 15829,13747 15777,13742 15719,13747 15679,13708 14717,12879 17058,13022 16069,13655 Z"/>
       </g>
      </g>
      <g class="com.sun.star.drawing.ClosedBezierShape">
       <g id="id91">
        <rect class="BoundingBox" stroke="none" fill="none" x="13254" y="13179" width="1113" height="769"/>
        <path fill="rgb(0,0,0)" stroke="none" d="M 13988,13179 C 14081,13217 14181,13248 14258,13314 14794,14261 13141,13921 13260,13708 13350,13533 13803,13281 13988,13179 Z"/>
       </g>
      </g>
      <g class="com.sun.star.drawing.ClosedBezierShape">
       <g id="id92">
        <rect class="BoundingBox" stroke="none" fill="none" x="5105" y="13206" width="1567" height="1933"/>
        <path fill="rgb(0,0,0)" stroke="none" d="M 5887,13207 C 5998,13710 6235,13842 6671,13942 6455,14806 6139,15046 5371,15138 4766,14632 5304,13299 5887,13207 Z"/>
       </g>
      </g>
      <g class="com.sun.star.drawing.ClosedBezierShape">
       <g id="id93">
        <rect class="BoundingBox" stroke="none" fill="none" x="8289" y="13279" width="1737" height="1170"/>
        <path fill="rgb(0,0,0)" stroke="none" d="M 8954,13286 C 9006,13264 9058,13297 9106,13316 9465,13467 9576,13650 10025,13514 9867,13844 9389,14412 9032,14447 8552,14366 8212,13851 8306,13496 8347,13530 8390,13584 8451,13568 8644,13526 8775,13359 8954,13286 Z"/>
       </g>
      </g>
      <g class="com.sun.star.drawing.ClosedBezierShape">
       <g id="id94">
        <rect class="BoundingBox" stroke="none" fill="none" x="17031" y="13344" width="902" height="612"/>
        <path fill="rgb(0,0,0)" stroke="none" d="M 17733,13821 C 17601,13890 17460,13969 17304,13952 17123,13950 17016,13747 17033,13584 17080,13122 18427,13396 17733,13821 Z"/>
       </g>
      </g>
      <g class="com.sun.star.drawing.ClosedBezierShape">
       <g id="id95">
        <rect class="BoundingBox" stroke="none" fill="none" x="19275" y="13382" width="603" height="906"/>
        <path fill="rgb(0,0,0)" stroke="none" d="M 19874,13922 C 19853,14094 19705,14210 19562,14286 18747,12885 19930,13403 19874,13922 Z"/>
       </g>
      </g>
      <g class="com.sun.star.drawing.ClosedBezierShape">
       <g id="id96">
        <rect class="BoundingBox" stroke="none" fill="none" x="9535" y="13429" width="1304" height="1146"/>
        <path fill="rgb(0,0,0)" stroke="none" d="M 10685,13676 C 10723,13703 10786,13692 10810,13738 10919,13948 10685,14399 10354,14516 9944,14669 9709,14478 9535,14394 10740,12962 10468,13498 10685,13676 Z"/>
       </g>
      </g>
      <g class="com.sun.star.drawing.ClosedBezierShape">
       <g id="id97">
        <rect class="BoundingBox" stroke="none" fill="none" x="13215" y="13619" width="1850" height="878"/>
        <path fill="rgb(0,0,0)" stroke="none" d="M 14613,13620 C 15176,13810 15257,14301 14595,14455 13725,14646 13323,14099 13215,14018 13690,14099 14518,14125 14613,13620 Z"/>
       </g>
      </g>
      <g class="com.sun.star.drawing.ClosedBezierShape">
       <g id="id98">
        <rect class="BoundingBox" stroke="none" fill="none" x="10729" y="13796" width="1997" height="1503"/>
        <path fill="rgb(0,0,0)" stroke="none" d="M 11109,13796 C 11517,14290 12393,14538 12725,14496 12312,15484 12135,15275 12006,15285 11416,15313 10840,15131 10732,14551 10694,14304 11237,14305 11109,13796 Z"/>
       </g>
      </g>
      <g class="com.sun.star.drawing.ClosedBezierShape">
       <g id="id99">
        <rect class="BoundingBox" stroke="none" fill="none" x="6476" y="13829" width="1625" height="1985"/>
        <path fill="rgb(0,0,0)" stroke="none" d="M 7761,13837 C 7828,13809 7890,13864 7942,13901 8407,14281 7725,15407 7368,15695 6896,16087 6357,15424 6499,14879 6574,14581 6621,14079 6831,14055 6918,14066 7004,14096 7093,14079 7330,14043 7534,13907 7761,13837 Z"/>
       </g>
      </g>
      <g class="com.sun.star.drawing.ClosedBezierShape">
       <g id="id100">
        <rect class="BoundingBox" stroke="none" fill="none" x="17650" y="13819" width="1235" height="1298"/>
        <path fill="rgb(0,0,0)" stroke="none" d="M 18838,14341 C 19037,15191 18527,15171 18362,15062 18232,14960 18071,14907 17944,14802 17012,14106 18566,13246 18838,14341 Z"/>
       </g>
      </g>
      <g class="com.sun.star.drawing.ClosedBezierShape">
       <g id="id101">
        <rect class="BoundingBox" stroke="none" fill="none" x="16008" y="13936" width="883" height="551"/>
        <path fill="rgb(0,0,0)" stroke="none" d="M 16874,14193 C 16804,14319 16663,14379 16540,14441 16305,14568 15947,14415 16017,14140 16109,13804 17017,13928 16874,14193 Z"/>
       </g>
      </g>
      <g class="com.sun.star.drawing.ClosedBezierShape">
       <g id="id102">
        <rect class="BoundingBox" stroke="none" fill="none" x="3570" y="14163" width="1637" height="2042"/>
        <path fill="rgb(0,0,0)" stroke="none" d="M 3571,14163 C 3998,14862 4382,14401 4817,14353 4946,14643 5078,14932 5206,15222 4884,15858 4327,16493 4014,16062 3704,15593 3605,14726 3571,14163 Z"/>
       </g>
      </g>
      <g class="com.sun.star.drawing.ClosedBezierShape">
       <g id="id103">
        <rect class="BoundingBox" stroke="none" fill="none" x="7908" y="14267" width="797" height="1834"/>
        <path fill="rgb(0,0,0)" stroke="none" d="M 8626,15099 C 8849,15711 8573,16390 8050,15969 7796,15757 7924,15303 8132,14740 8573,13677 8495,14677 8626,15099 Z"/>
       </g>
      </g>
      <g class="com.sun.star.drawing.ClosedBezierShape">
       <g id="id104">
        <rect class="BoundingBox" stroke="none" fill="none" x="19982" y="14281" width="569" height="894"/>
        <path fill="rgb(0,0,0)" stroke="none" d="M 19982,14299 C 20673,14164 20610,14842 20428,15086 20161,15423 20070,14705 19982,14299 Z"/>
       </g>
      </g>
      <g class="com.sun.star.drawing.ClosedBezierShape">
       <g id="id105">
        <rect class="BoundingBox" stroke="none" fill="none" x="12212" y="14337" width="1007" height="1137"/>
        <path fill="rgb(0,0,0)" stroke="none" d="M 12930,14337 C 13244,14616 13388,15396 12901,15422 12684,15439 12469,15483 12250,15470 12233,15426 12189,15375 12226,15330 12348,15177 12681,15115 12930,14337 Z"/>
       </g>
      </g>
      <g class="com.sun.star.drawing.ClosedBezierShape">
       <g id="id106">
        <rect class="BoundingBox" stroke="none" fill="none" x="2254" y="14439" width="1351" height="885"/>
        <path fill="rgb(0,0,0)" stroke="none" d="M 2254,14439 C 3040,15168 2595,14697 3604,14917 3538,15026 3160,15156 2631,15323 2408,15084 2259,14769 2254,14439 Z"/>
       </g>
      </g>
      <g class="com.sun.star.drawing.ClosedBezierShape">
       <g id="id107">
        <rect class="BoundingBox" stroke="none" fill="none" x="8713" y="14501" width="819" height="720"/>
        <path fill="rgb(0,0,0)" stroke="none" d="M 8838,14502 C 9132,14675 9441,14672 9525,14770 9626,15571 8312,15189 8838,14502 Z"/>
       </g>
      </g>
      <g class="com.sun.star.drawing.ClosedBezierShape">
       <g id="id108">
        <rect class="BoundingBox" stroke="none" fill="none" x="13929" y="14505" width="1632" height="865"/>
        <path fill="rgb(0,0,0)" stroke="none" d="M 15308,15095 C 14817,15544 14398,15321 14190,15247 12966,14696 16505,13974 15308,15095 Z"/>
       </g>
      </g>
      <g class="com.sun.star.drawing.ClosedBezierShape">
       <g id="id109">
        <rect class="BoundingBox" stroke="none" fill="none" x="16600" y="14624" width="1090" height="952"/>
        <path fill="rgb(0,0,0)" stroke="none" d="M 17586,14895 C 17626,15076 17714,15256 17681,15444 17606,15757 16972,15435 16745,15204 16332,14775 16857,14319 17586,14895 Z"/>
       </g>
      </g>
      <g class="com.sun.star.drawing.ClosedBezierShape">
       <g id="id110">
        <rect class="BoundingBox" stroke="none" fill="none" x="9538" y="14734" width="948" height="642"/>
        <path fill="rgb(0,0,0)" stroke="none" d="M 10484,14816 C 10212,14944 10251,15443 9589,15367 9342,15238 10049,14490 10484,14816 Z"/>
       </g>
      </g>
      <g class="com.sun.star.drawing.ClosedBezierShape">
       <g id="id111">
        <rect class="BoundingBox" stroke="none" fill="none" x="12338" y="14891" width="1588" height="1461"/>
        <path fill="rgb(0,0,0)" stroke="none" d="M 13430,14891 C 13774,15163 14389,16457 13338,16343 13142,16337 12761,15911 12338,15665 12880,15772 13338,15556 13430,14891 Z"/>
       </g>
      </g>
      <g class="com.sun.star.drawing.ClosedBezierShape">
       <g id="id112">
        <rect class="BoundingBox" stroke="none" fill="none" x="9070" y="15009" width="1733" height="1427"/>
        <path fill="rgb(0,0,0)" stroke="none" d="M 10503,15105 C 10863,14609 11025,16217 10238,16326 10152,16331 10095,16406 10013,16422 9675,16502 9169,16204 9070,15409 9466,15486 10113,15664 10503,15105 Z"/>
       </g>
      </g>
      <g class="com.sun.star.drawing.ClosedBezierShape">
       <g id="id113">
        <rect class="BoundingBox" stroke="none" fill="none" x="2090" y="15160" width="483" height="975"/>
        <path fill="rgb(0,0,0)" stroke="none" d="M 2179,15161 C 2743,15479 2686,16166 2098,16132 2075,15807 2103,15478 2179,15161 Z"/>
       </g>
      </g>
      <g class="com.sun.star.drawing.ClosedBezierShape">
       <g id="id114">
        <rect class="BoundingBox" stroke="none" fill="none" x="5265" y="15169" width="1465" height="1927"/>
        <path fill="rgb(0,0,0)" stroke="none" d="M 6202,15169 C 6384,15188 6653,15789 6729,15958 5797,17551 4972,17597 5366,15281 5500,15444 5999,15268 6202,15169 Z"/>
       </g>
      </g>
      <g class="com.sun.star.drawing.ClosedBezierShape">
       <g id="id115">
        <rect class="BoundingBox" stroke="none" fill="none" x="20752" y="15246" width="496" height="602"/>
        <path fill="rgb(0,0,0)" stroke="none" d="M 20754,15246 C 21028,15312 21569,16081 20987,15775 20922,15688 20731,15379 20754,15246 Z"/>
       </g>
      </g>
      <g class="com.sun.star.drawing.ClosedBezierShape">
       <g id="id116">
        <rect class="BoundingBox" stroke="none" fill="none" x="11162" y="15296" width="744" height="487"/>
        <path fill="rgb(0,0,0)" stroke="none" d="M 11191,15310 C 11364,15240 11747,15475 11905,15587 11735,15681 11553,15792 11351,15781 11124,15768 11149,15393 11191,15310 Z"/>
       </g>
      </g>
      <g class="com.sun.star.drawing.ClosedBezierShape">
       <g id="id117">
        <rect class="BoundingBox" stroke="none" fill="none" x="2430" y="15326" width="883" height="1756"/>
        <path fill="rgb(0,0,0)" stroke="none" d="M 3259,15976 C 3155,16397 2913,16935 2502,17081 2088,15983 3609,14434 3259,15976 Z"/>
       </g>
      </g>
      <g class="com.sun.star.drawing.ClosedBezierShape">
       <g id="id118">
        <rect class="BoundingBox" stroke="none" fill="none" x="3170" y="15365" width="895" height="2082"/>
        <path fill="rgb(0,0,0)" stroke="none" d="M 3581,15365 C 3611,15747 3692,16252 4063,16350 4091,16688 3646,17205 3373,17409 3322,17457 3251,17443 3187,17445 3084,17217 3490,15723 3581,15365 Z"/>
       </g>
      </g>
      <g class="com.sun.star.drawing.ClosedBezierShape">
       <g id="id119">
        <rect class="BoundingBox" stroke="none" fill="none" x="14638" y="15491" width="1346" height="593"/>
        <path fill="rgb(0,0,0)" stroke="none" d="M 15844,15553 C 16094,15650 15967,15926 15764,16082 15462,16072 15161,16061 14860,16043 14715,15987 14523,15816 14726,15675 14969,15505 15536,15427 15844,15553 Z"/>
       </g>
      </g>
      <g class="com.sun.star.drawing.ClosedBezierShape">
       <g id="id120">
        <rect class="BoundingBox" stroke="none" fill="none" x="8719" y="15578" width="578" height="876"/>
        <path fill="rgb(0,0,0)" stroke="none" d="M 8859,15578 C 8959,15736 9287,16267 9296,16453 8627,16405 8628,16666 8859,15578 Z"/>
       </g>
      </g>
      <g class="com.sun.star.drawing.ClosedBezierShape">
       <g id="id121">
        <rect class="BoundingBox" stroke="none" fill="none" x="19804" y="15641" width="1557" height="1324"/>
        <path fill="rgb(0,0,0)" stroke="none" d="M 19804,15641 C 20322,15774 21309,15961 21360,16964 20855,16555 20075,15946 19804,15641 Z"/>
       </g>
      </g>
      <g class="com.sun.star.drawing.ClosedBezierShape">
       <g id="id122">
        <rect class="BoundingBox" stroke="none" fill="none" x="10993" y="15660" width="1042" height="1121"/>
        <path fill="rgb(0,0,0)" stroke="none" d="M 10994,15660 C 11260,16218 11883,15964 12007,15785 12149,16729 11689,17233 11176,16230 11090,16049 11012,15861 10994,15660 Z"/>
       </g>
      </g>
      <g class="com.sun.star.drawing.ClosedBezierShape">
       <g id="id123">
        <rect class="BoundingBox" stroke="none" fill="none" x="6758" y="15849" width="1588" height="1931"/>
        <path fill="rgb(0,0,0)" stroke="none" d="M 6999,15980 C 7186,15915 7380,15829 7582,15853 7823,16047 8041,16297 8344,16395 7940,18148 6108,18468 6999,15980 Z"/>
       </g>
      </g>
      <g class="com.sun.star.drawing.ClosedBezierShape">
       <g id="id124">
        <rect class="BoundingBox" stroke="none" fill="none" x="4233" y="16074" width="836" height="1635"/>
        <path fill="rgb(0,0,0)" stroke="none" d="M 4935,16074 C 4903,16517 5137,16898 5045,17095 4277,18859 3735,16269 4935,16074 Z"/>
       </g>
      </g>
      <g class="com.sun.star.drawing.ClosedBezierShape">
       <g id="id125">
        <rect class="BoundingBox" stroke="none" fill="none" x="12137" y="16089" width="993" height="850"/>
        <path fill="rgb(0,0,0)" stroke="none" d="M 12441,16089 C 13061,16222 13365,16481 12911,16938 12653,16930 12395,16923 12137,16915 12238,16640 12340,16365 12441,16089 Z"/>
       </g>
      </g>
      <g class="com.sun.star.drawing.ClosedBezierShape">
       <g id="id126">
        <rect class="BoundingBox" stroke="none" fill="none" x="19566" y="16109" width="1781" height="1967"/>
        <path fill="rgb(0,0,0)" stroke="none" d="M 19566,16142 C 19927,15857 21377,17540 21345,18074 20717,17740 20002,16722 19566,16142 Z"/>
       </g>
      </g>
      <g class="com.sun.star.drawing.ClosedBezierShape">
       <g id="id127">
        <rect class="BoundingBox" stroke="none" fill="none" x="10515" y="16276" width="1339" height="1689"/>
        <path fill="rgb(0,0,0)" stroke="none" d="M 10926,16276 C 11230,16412 11586,17098 11852,17001 11399,18806 10445,17560 10520,17336 10610,16966 10832,16644 10926,16276 Z"/>
       </g>
      </g>
      <g class="com.sun.star.drawing.ClosedBezierShape">
       <g id="id128">
        <rect class="BoundingBox" stroke="none" fill="none" x="8441" y="16396" width="2228" height="1855"/>
        <path fill="rgb(0,0,0)" stroke="none" d="M 10458,16397 C 10551,16390 10579,16585 10668,16720 10307,17344 9843,18092 9466,18201 8596,18522 8243,17155 8551,16631 8581,16593 8612,16525 8670,16544 10116,16821 10356,16455 10458,16397 Z"/>
       </g>
      </g>
      <g class="com.sun.star.drawing.ClosedBezierShape">
       <g id="id129">
        <rect class="BoundingBox" stroke="none" fill="none" x="14871" y="16417" width="962" height="739"/>
        <path fill="rgb(0,0,0)" stroke="none" d="M 15567,16576 C 15651,16635 15760,16677 15801,16779 15897,17003 15776,17384 15245,16973 15171,16900 15049,16932 14975,16856 14764,16708 14832,16147 15567,16576 Z"/>
       </g>
      </g>
      <g class="com.sun.star.drawing.ClosedBezierShape">
       <g id="id130">
        <rect class="BoundingBox" stroke="none" fill="none" x="16025" y="16402" width="661" height="641"/>
        <path fill="rgb(0,0,0)" stroke="none" d="M 16683,16847 C 16669,16934 16596,16990 16531,17041 15283,16018 16746,16432 16683,16847 Z"/>
       </g>
      </g>
      <g class="com.sun.star.drawing.ClosedBezierShape">
       <g id="id131">
        <rect class="BoundingBox" stroke="none" fill="none" x="5572" y="16798" width="1159" height="1418"/>
        <path fill="rgb(0,0,0)" stroke="none" d="M 6320,16798 C 6605,16990 6647,17494 6729,17878 6208,18645 5642,17906 5575,17577 5539,17474 5993,17006 6320,16798 Z"/>
       </g>
      </g>
      <g class="com.sun.star.drawing.ClosedBezierShape">
       <g id="id132">
        <rect class="BoundingBox" stroke="none" fill="none" x="17476" y="16988" width="3241" height="2434"/>
        <path fill="rgb(0,0,0)" stroke="none" d="M 17476,16988 C 17502,17004 20548,19220 20716,19409 20635,19383 20560,19342 20487,19300 19852,20006 17684,17390 17476,16988 Z"/>
       </g>
      </g>
      <g class="com.sun.star.drawing.ClosedBezierShape">
       <g id="id133">
        <rect class="BoundingBox" stroke="none" fill="none" x="2652" y="17283" width="1540" height="1763"/>
        <path fill="rgb(0,0,0)" stroke="none" d="M 2653,17283 C 2850,17401 3443,18198 4190,18905 3741,19584 2643,17588 2653,17283 Z"/>
       </g>
      </g>
      <g class="com.sun.star.drawing.ClosedBezierShape">
       <g id="id134">
        <rect class="BoundingBox" stroke="none" fill="none" x="15991" y="17744" width="2024" height="1379"/>
        <path fill="rgb(0,0,0)" stroke="none" d="M 15992,17744 C 16349,18449 17248,18958 18014,19042 17874,19256 16008,19105 15992,17744 Z"/>
       </g>
      </g>
      <g class="com.sun.star.drawing.ClosedBezierShape">
       <g id="id135">
        <rect class="BoundingBox" stroke="none" fill="none" x="12324" y="17892" width="2533" height="2579"/>
        <path fill="rgb(0,0,0)" stroke="none" d="M 12324,17892 C 14149,20085 14591,20267 14651,19057 15507,21691 13477,20258 12324,17892 Z"/>
       </g>
      </g>
      <g class="com.sun.star.drawing.ClosedBezierShape">
       <g id="id136">
        <rect class="BoundingBox" stroke="none" fill="none" x="4475" y="17988" width="1699" height="2690"/>
        <path fill="rgb(0,0,0)" stroke="none" d="M 4475,17988 C 4808,18733 5642,19851 6143,20490 6188,20543 6186,20656 6106,20675 5741,20725 4521,19631 4475,17988 Z"/>
       </g>
      </g>
      <g class="com.sun.star.drawing.ClosedBezierShape">
       <g id="id137">
        <rect class="BoundingBox" stroke="none" fill="none" x="7303" y="18312" width="2608" height="2363"/>
        <path fill="rgb(0,0,0)" stroke="none" d="M 7304,18312 C 7829,19210 9020,20013 9909,20487 9804,20478 9753,20812 9265,20607 8468,20257 7257,18783 7304,18312 Z"/>
       </g>
      </g>
      <g class="com.sun.star.drawing.ClosedBezierShape">
       <g id="id138">
        <rect class="BoundingBox" stroke="none" fill="none" x="9436" y="18522" width="2185" height="1994"/>
        <path fill="rgb(0,0,0)" stroke="none" d="M 9436,18522 C 11012,20634 11537,19918 11609,19956 11721,20223 10966,21657 9436,18522 Z"/>
       </g>
      </g>
      <g class="com.sun.star.drawing.ClosedBezierShape">
       <g id="id139">
        <rect class="BoundingBox" stroke="none" fill="none" x="3129" y="20481" width="975" height="715"/>
        <path fill="rgb(0,0,0)" stroke="none" d="M 4061,21189 C 3862,21189 3657,21213 3464,21157 2346,20459 4414,20060 4061,21189 Z"/>
       </g>
      </g>
      <g class="com.sun.star.drawing.ClosedBezierShape">
       <g id="id140">
        <rect class="BoundingBox" stroke="none" fill="none" x="22091" y="21087" width="3688" height="4839"/>
        <path fill="rgb(0,0,0)" stroke="none" d="M 22092,21087 C 22600,21651 25715,25084 25776,25823 25861,26535 22682,23324 22096,22214 22328,22273 22313,21446 22092,21087 Z"/>
       </g>
      </g>
      <g class="com.sun.star.drawing.ClosedBezierShape">
       <g id="id141">
        <rect class="BoundingBox" stroke="none" fill="none" x="4956" y="21323" width="406" height="734"/>
        <path fill="rgb(0,0,0)" stroke="none" d="M 5309,21324 C 5383,21455 5360,21814 5347,21956 5343,22127 5055,22032 4957,22007 5165,21425 5235,21356 5309,21324 Z"/>
       </g>
      </g>
      <g class="com.sun.star.drawing.ClosedBezierShape">
       <g id="id142">
        <rect class="BoundingBox" stroke="none" fill="none" x="2899" y="21804" width="529" height="409"/>
        <path fill="rgb(0,0,0)" stroke="none" d="M 3404,22032 C 3313,22136 3171,22168 3046,22212 2522,21583 3594,21814 3404,22032 Z"/>
       </g>
      </g>
      <g class="com.sun.star.drawing.ClosedBezierShape">
       <g id="id143">
        <rect class="BoundingBox" stroke="none" fill="none" x="3787" y="21887" width="605" height="858"/>
        <path fill="rgb(0,0,0)" stroke="none" d="M 3970,22744 C 3885,22546 3796,22341 3788,22122 3756,21463 5027,22361 3970,22744 Z"/>
       </g>
      </g>
      <g class="com.sun.star.drawing.ClosedBezierShape">
       <g id="id144">
        <rect class="BoundingBox" stroke="none" fill="none" x="5984" y="22572" width="731" height="412"/>
        <path fill="rgb(0,0,0)" stroke="none" d="M 6606,22912 C 6410,22994 6192,22983 5984,22980 6073,22191 7030,22763 6606,22912 Z"/>
       </g>
      </g>
      <g class="com.sun.star.drawing.ClosedBezierShape">
       <g id="id145">
        <rect class="BoundingBox" stroke="none" fill="none" x="6837" y="22857" width="644" height="555"/>
        <path fill="rgb(0,0,0)" stroke="none" d="M 7369,23338 C 7211,23440 7012,23414 6837,23386 7202,22345 7705,23130 7369,23338 Z"/>
       </g>
      </g>
      <g class="com.sun.star.drawing.ClosedBezierShape">
       <g id="id146">
        <rect class="BoundingBox" stroke="none" fill="none" x="2952" y="22888" width="622" height="649"/>
        <path fill="rgb(0,0,0)" stroke="none" d="M 3464,23515 C 3344,23553 3217,23529 3095,23517 2504,22179 3970,23368 3464,23515 Z"/>
       </g>
      </g>
      <g class="com.sun.star.drawing.ClosedBezierShape">
       <g id="id147">
        <rect class="BoundingBox" stroke="none" fill="none" x="4858" y="22913" width="650" height="676"/>
        <path fill="rgb(0,0,0)" stroke="none" d="M 5184,23588 C 5101,23569 5018,23550 4935,23532 4875,23381 4818,23201 4901,23048 5098,22718 5971,23032 5184,23588 Z M 5020,23274 C 5000,23303 5006,23323 5037,23332 5057,23301 5051,23282 5020,23274 Z"/>
       </g>
      </g>
      <g class="com.sun.star.drawing.ClosedBezierShape">
       <g id="id148">
        <rect class="BoundingBox" stroke="none" fill="none" x="4097" y="23494" width="493" height="298"/>
        <path fill="rgb(0,0,0)" stroke="none" d="M 4097,23518 C 4204,23438 4542,23572 4589,23693 4563,23772 4464,23770 4396,23790 4289,23709 4166,23638 4097,23518 Z"/>
       </g>
      </g>
      <g class="com.sun.star.drawing.ClosedBezierShape">
       <g id="id149">
        <rect class="BoundingBox" stroke="none" fill="none" x="6812" y="23818" width="994" height="809"/>
        <path fill="rgb(0,0,0)" stroke="none" d="M 7585,24374 C 7529,24440 7486,24532 7392,24551 7208,24615 6978,24684 6812,24543 6886,23975 8347,23328 7585,24374 Z"/>
       </g>
      </g>
      <g class="com.sun.star.drawing.ClosedBezierShape">
       <g id="id150">
        <rect class="BoundingBox" stroke="none" fill="none" x="5634" y="23838" width="764" height="582"/>
        <path fill="rgb(0,0,0)" stroke="none" d="M 6049,24410 C 5933,24437 5808,24399 5713,24328 5232,23659 7154,23664 6049,24410 Z"/>
       </g>
      </g>
      <g class="com.sun.star.drawing.ClosedBezierShape">
       <g id="id151">
        <rect class="BoundingBox" stroke="none" fill="none" x="7780" y="24200" width="1146" height="1751"/>
        <path fill="rgb(0,0,0)" stroke="none" d="M 8471,24200 C 8705,24322 9040,25238 8885,25700 8702,26251 7756,25751 7780,25507 7890,25343 8755,25500 8553,24824 8525,24710 8324,24384 8471,24200 Z"/>
       </g>
      </g>
      <g class="com.sun.star.drawing.ClosedBezierShape">
       <g id="id152">
        <rect class="BoundingBox" stroke="none" fill="none" x="4434" y="24347" width="355" height="905"/>
        <path fill="rgb(0,0,0)" stroke="none" d="M 4697,24351 C 4870,24468 4747,25030 4706,25227 4619,25268 4527,25249 4441,25215 4397,24672 4555,24306 4697,24351 Z"/>
       </g>
      </g>
      <g class="com.sun.star.drawing.ClosedBezierShape">
       <g id="id153">
        <rect class="BoundingBox" stroke="none" fill="none" x="9283" y="24763" width="865" height="1729"/>
        <path fill="rgb(0,0,0)" stroke="none" d="M 9658,24763 C 10389,24995 10300,26852 9393,26428 8915,26063 10183,25655 9658,24763 Z"/>
       </g>
      </g>
      <g class="com.sun.star.drawing.ClosedBezierShape">
       <g id="id154">
        <rect class="BoundingBox" stroke="none" fill="none" x="10750" y="24902" width="979" height="1154"/>
        <path fill="rgb(0,0,0)" stroke="none" d="M 11410,24913 C 11484,24879 11558,24939 11596,24999 11883,25454 11681,26344 11192,25962 10246,24773 11062,25133 11410,24913 Z"/>
       </g>
      </g>
      <g class="com.sun.star.drawing.ClosedBezierShape">
       <g id="id155">
        <rect class="BoundingBox" stroke="none" fill="none" x="5325" y="24909" width="931" height="766"/>
        <path fill="rgb(0,0,0)" stroke="none" d="M 5910,25673 C 5817,25660 5701,25669 5641,25582 4429,24183 7183,25350 5910,25673 Z"/>
       </g>
      </g>
      <g class="com.sun.star.drawing.ClosedBezierShape">
       <g id="id156">
        <rect class="BoundingBox" stroke="none" fill="none" x="6581" y="25323" width="641" height="659"/>
        <path fill="rgb(0,0,0)" stroke="none" d="M 7050,25966 C 6895,26000 6735,25969 6583,25938 6522,24602 7635,25841 7050,25966 Z"/>
       </g>
      </g>
      <g class="com.sun.star.drawing.ClosedBezierShape">
       <g id="id157">
        <rect class="BoundingBox" stroke="none" fill="none" x="12841" y="26107" width="923" height="617"/>
        <path fill="rgb(0,0,0)" stroke="none" d="M 12857,26120 C 13086,26021 13940,26528 13729,26674 13602,26742 13449,26721 13311,26716 13229,26723 12751,26227 12857,26120 Z"/>
       </g>
      </g>
      <g class="com.sun.star.drawing.ClosedBezierShape">
       <g id="id158">
        <rect class="BoundingBox" stroke="none" fill="none" x="5823" y="26232" width="788" height="1121"/>
        <path fill="rgb(0,0,0)" stroke="none" d="M 6119,26290 C 6323,26470 6393,26780 6477,26877 6628,27061 6670,27333 6495,27350 6180,27378 5784,26907 5826,26455 5854,26257 5968,26163 6119,26290 Z"/>
       </g>
      </g>
      <g class="com.sun.star.drawing.ClosedBezierShape">
       <g id="id159">
        <rect class="BoundingBox" stroke="none" fill="none" x="7562" y="26262" width="908" height="2137"/>
        <path fill="rgb(0,0,0)" stroke="none" d="M 7651,26262 C 8489,26502 7486,27498 8468,28258 8416,28593 7838,28264 7662,27893 7441,27442 7659,26862 7651,26262 Z"/>
       </g>
      </g>
      <g class="com.sun.star.drawing.ClosedBezierShape">
       <g id="id160">
        <rect class="BoundingBox" stroke="none" fill="none" x="10465" y="26842" width="819" height="1367"/>
        <path fill="rgb(0,0,0)" stroke="none" d="M 11240,27709 C 11226,27802 11306,27883 11276,27976 11247,28122 11075,28266 10929,28183 10612,27886 10346,27521 10520,27114 10685,26722 11259,26625 11240,27709 Z"/>
       </g>
      </g>
      <g class="com.sun.star.drawing.ClosedBezierShape">
       <g id="id161">
        <rect class="BoundingBox" stroke="none" fill="none" x="8647" y="26917" width="791" height="1104"/>
        <path fill="rgb(0,0,0)" stroke="none" d="M 9100,27035 C 9379,27318 9568,28015 9324,28020 9160,28022 8678,27632 8649,27225 8626,26964 8857,26792 9100,27035 Z"/>
       </g>
      </g>
      <g class="com.sun.star.drawing.ClosedBezierShape">
       <g id="id162">
        <rect class="BoundingBox" stroke="none" fill="none" x="11665" y="26904" width="1011" height="666"/>
        <path fill="rgb(0,0,0)" stroke="none" d="M 12136,27569 C 11983,27456 11820,27344 11712,27183 11307,26607 13704,27018 12136,27569 Z"/>
       </g>
      </g>
      <g class="com.sun.star.drawing.ClosedBezierShape">
       <g id="id163">
        <rect class="BoundingBox" stroke="none" fill="none" x="12430" y="28003" width="1843" height="1123"/>
        <path fill="rgb(0,0,0)" stroke="none" d="M 13060,28023 C 14267,27846 14735,28920 13704,29082 13550,29107 13395,29098 13240,29098 13152,29096 13067,29127 12979,29125 12856,29088 12495,28959 12430,28845 12724,28656 14068,28836 13060,28023 Z"/>
       </g>
      </g>
      <g class="com.sun.star.drawing.ClosedBezierShape">
       <g id="id164">
        <rect class="BoundingBox" stroke="none" fill="none" x="8440" y="28883" width="1104" height="901"/>
        <path fill="rgb(0,0,0)" stroke="none" d="M 9178,29305 C 9395,29296 9570,29567 9540,29716 9502,29899 8700,29710 8469,29126 8356,28789 8589,28763 9178,29305 Z"/>
       </g>
      </g>
      <g class="com.sun.star.drawing.ClosedBezierShape">
       <g id="id165">
        <rect class="BoundingBox" stroke="none" fill="none" x="10678" y="28924" width="1015" height="895"/>
        <path fill="rgb(0,0,0)" stroke="none" d="M 11648,29695 C 11565,29796 11392,29877 11286,29761 11139,29581 10727,29354 10681,29088 10612,28704 11947,29031 11648,29695 Z"/>
       </g>
      </g>
      <g class="com.sun.star.drawing.ClosedBezierShape">
       <g id="id166">
        <rect class="BoundingBox" stroke="none" fill="none" x="14000" y="29219" width="626" height="780"/>
        <path fill="rgb(0,0,0)" stroke="none" d="M 14478,29912 C 14346,29984 14192,29992 14045,29997 13750,28470 15048,29609 14478,29912 Z"/>
       </g>
      </g>
      <g class="com.sun.star.drawing.ClosedBezierShape">
       <g id="id167">
        <rect class="BoundingBox" stroke="none" fill="none" x="10197" y="29581" width="794" height="519"/>
        <path fill="rgb(0,0,0)" stroke="none" d="M 10934,30022 C 10806,30092 10653,30088 10512,30099 9487,29089 11324,29836 10934,30022 Z"/>
       </g>
      </g>
      <g class="com.sun.star.drawing.ClosedBezierShape">
       <g id="id168">
        <rect class="BoundingBox" stroke="none" fill="none" x="10955" y="30566" width="1096" height="501"/>
        <path fill="rgb(0,0,0)" stroke="none" d="M 10956,30583 C 11164,30500 11956,30736 12049,30928 12059,31045 11720,31092 11643,31050 11192,30820 10997,30702 10956,30583 Z"/>
       </g>
      </g>
     </g>
    </g>
   </g>
  </g>
 </g>
</svg>